<svg xmlns="http://www.w3.org/2000/svg" xmlns:xlink="http://www.w3.org/1999/xlink" fill="none" version="1.1" width="20.64435577392578" height="15.750000953674316" viewBox="0 0 20.64435577392578 15.750000953674316"><g transform="matrix(1,0,0,-1,0,31.500001907348633)"><path d="M17.5463,30.164100953674314Q17.5112,30.199200953674314,17.5112,30.199200953674314Q15.4733,31.11330095367432,13.2948,31.500000953674316Q13.2596,31.500000953674316,13.2245,31.464800953674317Q12.9434,30.937500953674316,12.6975,30.375000953674316Q10.3433,30.761700953674314,7.9891,30.375000953674316Q7.74314,30.937500953674316,7.46205,31.464800953674317Q7.42691,31.500000953674316,7.39177,31.500000953674316Q5.21328,31.11330095367432,3.17534,30.199200953674314L3.1402,30.164100953674314Q1.17253,27.17580095367432,0.469794,24.222660953674314Q-0.197808,21.304690953674317,0.0832875,18.421880953674318Q0.118424,18.386720953674317,0.118424,18.351560953674316Q2.4726,16.628906953674317,5.28356,15.750000953674316Q5.31869,15.750000953674316,5.35383,15.785157153674316Q5.95116,16.593750953674316,6.40794,17.507810953674316L6.40794,17.542970953674317Q6.40794,17.578120953674315,6.3728,17.578120953674315Q5.52951,17.894530953674316,4.7565,18.351560953674316Q4.72136,18.386720953674317,4.72136,18.421880953674318Q4.72136,18.457030953674316,4.7565,18.457030953674316Q4.93219,18.597660953674318,5.07273,18.703130953674318Q5.10787,18.738280953674316,5.14301,18.738280953674316Q7.708,17.578120953674315,10.3433,17.578120953674315Q13.0137,17.578120953674315,15.5435,18.738280953674316Q15.5787,18.738280953674316,15.5787,18.703130953674318Q15.7544,18.597660953674318,15.93,18.457030953674316L15.93,18.421880953674318Q15.93,18.386720953674317,15.8949,18.351560953674316Q15.1219,17.894530953674316,14.3138,17.578120953674315Q14.2786,17.578120953674315,14.2435,17.542970953674317Q14.2435,17.507810953674316,14.2786,17.507810953674316Q14.7354,16.593750953674316,15.3327,15.785157153674316Q15.3327,15.750000953674316,15.403,15.750000953674316Q18.1788,16.628906953674317,20.5681,18.351560953674316Q20.5681,18.386720953674317,20.5681,18.421880953674318Q21.1303,25.066410953674314,17.5463,30.164100953674314ZM6.89985,20.742190953674317Q6.12684,20.777340953674315,5.59979,21.375000953674316Q5.07273,21.972660953674318,5.07273,22.851560953674316Q5.07273,23.730470953674317,5.59979,24.328120953674315Q6.12684,24.890620953674315,6.89985,24.925780953674316Q7.708,24.890620953674315,8.23506,24.292970953674317Q8.76211,23.730470953674317,8.76211,22.851560953674316Q8.76211,21.972660953674318,8.23506,21.375000953674316Q7.708,20.777340953674315,6.89985,20.742190953674317ZM13.7867,20.742190953674317Q13.0137,20.777340953674315,12.4866,21.375000953674316Q11.9596,21.972660953674318,11.9244,22.851560953674316Q11.9596,23.730470953674317,12.4515,24.328120953674315Q12.9785,24.890620953674315,13.7867,24.925780953674316Q14.5948,24.890620953674315,15.1219,24.292970953674317Q15.6138,23.730470953674317,15.649,22.851560953674316Q15.6138,21.972660953674318,15.0868,21.375000953674316Q14.5948,20.777340953674315,13.7867,20.742190953674317Z" fill="#FFFFFF" fill-opacity="1" style="mix-blend-mode:passthrough"/></g></svg>