<svg xmlns="http://www.w3.org/2000/svg" xmlns:xlink="http://www.w3.org/1999/xlink" fill="none" version="1.1" width="40" height="40" viewBox="0 0 40 40"><defs><clipPath id="master_svg0_65_48299"><rect x="12" y="12" width="16" height="16" rx="0"/></clipPath></defs><g><rect x="0" y="0" width="40" height="40" rx="20" fill="#FCF3DC" fill-opacity="1" style="mix-blend-mode:passthrough"/><g clip-path="url(#master_svg0_65_48299)"><g transform="matrix(1,0,0,-1,0,56.708351135253906)"><g><path d="M13,41.36457556762696L23,41.36457556762696L13,41.36457556762696L23,41.36457556762696L23,43.36457556762696Q23.0312,44.02087556762695,23.625,44.30207556762696Q24.2188,44.52087556762695,24.7188,44.08337556762695L27.7188,41.08337556762695Q28,40.77087556762695,28,40.36457556762696Q28,39.95837556762695,27.7188,39.64587556762695L24.7188,36.64584556762695Q24.2188,36.20834556762695,23.625,36.45834556762695Q23.0312,36.70834556762695,23,37.36459556762695L23,39.36457556762696L13,39.36457556762696Q12.5625,39.36457556762696,12.28125,39.64587556762695Q12,39.92707556762696,12,40.36457556762696Q12,40.80207556762696,12.28125,41.08337556762695Q12.5625,41.36457556762696,13,41.36457556762696ZM27,33.36459556762695Q27.4375,33.36459556762695,27.7188,33.08334556762695Q28,32.80209556762695,28,32.36459556762695Q28,31.927095567626953,27.7188,31.645845567626953Q27.4375,31.364595567626953,27,31.364595567626953L17,31.364595567626953L17,29.364595567626953Q16.96875,28.708342567626953,16.375,28.427092267626954Q15.78125,28.208342567626953,15.28125,28.645842567626953L12.28125,31.645845567626953Q12,31.958345567626953,12,32.36459556762695Q12,32.77084556762695,12.28125,33.05209556762695L15.28125,36.05209556762695Q15.78125,36.52084556762695,16.375,36.27084556762695Q16.96875,36.02084556762695,17,35.36459556762695L17,33.36459556762695L27,33.36459556762695Z" fill="#D39D12" fill-opacity="1" style="mix-blend-mode:passthrough"/></g></g></g></g></svg>