<svg xmlns="http://www.w3.org/2000/svg" xmlns:xlink="http://www.w3.org/1999/xlink" fill="none" version="1.1" width="40" height="40" viewBox="0 0 40 40"><defs><clipPath id="master_svg0_65_48119"><rect x="14" y="12" width="12" height="16" rx="0"/></clipPath></defs><g><rect x="0" y="0" width="40" height="40" rx="20" fill="#DCFCE7" fill-opacity="1" style="mix-blend-mode:passthrough"/><g clip-path="url(#master_svg0_65_48119)"><g transform="matrix(1,0,0,-1,0,54.6875)"><g><path d="M19.28125,27.625Q19.59375,27.34375,20,27.34375Q20.40625,27.34375,20.71875,27.625L25.7188,32.625Q26,32.9375,26,33.34375Q26,33.75,25.7188,34.0625Q25.4062,34.34375,25,34.34375Q24.5938,34.34375,24.2812,34.0625L21,30.75L21,40.34375Q21,40.78125,20.71875,41.06255Q20.4375,41.34375,20,41.34375Q19.5625,41.34375,19.28125,41.06255Q19,40.78125,19,40.34375L19,30.75L15.71875,34.0625Q15.40625,34.34375,15,34.34375Q14.59375,34.34375,14.28125,34.0625Q14,33.75,14,33.34375Q14,32.9375,14.28125,32.625L19.28125,27.625Z" fill="#22C55E" fill-opacity="1" style="mix-blend-mode:passthrough"/></g></g></g></g></svg>