<svg xmlns="http://www.w3.org/2000/svg" xmlns:xlink="http://www.w3.org/1999/xlink" fill="none" version="1.1" width="40" height="40" viewBox="0 0 40 40"><defs><clipPath id="master_svg0_65_48180"><rect x="14" y="12" width="12" height="16" rx="0"/></clipPath></defs><g><rect x="0" y="0" width="40" height="40" rx="20" fill="#FEE2E2" fill-opacity="1" style="mix-blend-mode:passthrough"/><g clip-path="url(#master_svg0_65_48180)"><g transform="matrix(1,0,0,-1,0,54.6875)"><g><path d="M20.71875,41.06255Q20.40625,41.34375,20,41.34375Q19.59375,41.34375,19.28125,41.06255L14.28125,36.0625Q14,35.75,14,35.34375Q14,34.9375,14.28125,34.625Q14.59375,34.34375,15,34.34375Q15.40625,34.34375,15.71875,34.625L19,37.93755L19,28.34375Q19,27.90625,19.28125,27.625Q19.5625,27.34375,20,27.34375Q20.4375,27.34375,20.71875,27.625Q21,27.90625,21,28.34375L21,37.93755L24.2812,34.625Q24.5938,34.34375,25,34.34375Q25.4062,34.34375,25.7188,34.625Q26,34.9375,26,35.34375Q26,35.75,25.7188,36.0625L20.71875,41.06255Z" fill="#EF4444" fill-opacity="1" style="mix-blend-mode:passthrough"/></g></g></g></g></svg>