<svg xmlns="http://www.w3.org/2000/svg" xmlns:xlink="http://www.w3.org/1999/xlink" fill="none" version="1.1" width="14" height="10.5" viewBox="0 0 14 10.5"><g transform="matrix(1,0,0,-1,0,21)"><path d="M1.3125,21Q0.765625,20.9727,0.382812,20.6172Q0.0273438,20.23438,0,19.6875Q0.0273438,19.03125,0.519531,18.64844L6.48047,14.16406Q7,13.83594,7.51953,14.16406L13.4805,18.64844Q13.9727,19.03125,14,19.6875Q13.9727,20.23438,13.6172,20.6172Q13.2344,20.9727,12.6875,21L1.3125,21ZM0,17.9375L0,12.25L0,17.9375L0,12.25Q0.0273438,11.51172,0.519531,11.019531Q1.01172,10.5273438,1.75,10.5L12.25,10.5Q12.9883,10.5273438,13.4805,11.019531Q13.9727,11.51172,14,12.25L14,17.9375L8.03906,13.48047Q7.57422,13.125,7,13.125Q6.42578,13.125,5.96094,13.48047L0,17.9375Z" fill="#FFFFFF" fill-opacity="1" style="mix-blend-mode:passthrough"/></g></svg>