<svg xmlns="http://www.w3.org/2000/svg" xmlns:xlink="http://www.w3.org/1999/xlink" fill="none" version="1.1" width="18" height="18" viewBox="0 0 18 18"><g transform="matrix(1,0,0,-1,0,36)"><path d="M9,18Q11.4609,18.0351562,13.5,19.19531Q15.5391,20.39062,16.8047,22.5Q18,24.64453,18,27Q18,29.3555,16.8047,31.5Q15.5391,33.6094,13.5,34.8047Q11.4609,35.9648,9,36Q6.53906,35.9648,4.5,34.8047Q2.46094,33.6094,1.19531,31.5Q0,29.3555,0,27Q0,24.64453,1.19531,22.5Q2.46094,20.39062,4.5,19.19531Q6.53906,18.0351562,9,18ZM8.15625,23.90625L8.15625,26.15625L8.15625,23.90625L8.15625,26.15625L5.90625,26.15625Q5.13281,26.22656,5.0625,27Q5.13281,27.77344,5.90625,27.84375L8.15625,27.84375L8.15625,30.0938Q8.22656,30.8672,9,30.9375Q9.77344,30.8672,9.84375,30.0938L9.84375,27.84375L12.0938,27.84375Q12.8672,27.77344,12.9375,27Q12.8672,26.22656,12.0938,26.15625L9.84375,26.15625L9.84375,23.90625Q9.77344,23.13281,9,23.0625Q8.22656,23.13281,8.15625,23.90625Z" fill="#FFFFFF" fill-opacity="1" style="mix-blend-mode:passthrough"/></g></svg>