<svg xmlns="http://www.w3.org/2000/svg" xmlns:xlink="http://www.w3.org/1999/xlink" fill="none" version="1.1" width="20" height="20" viewBox="0 0 20 20"><g><path d="M0,18L20,18L20,20L0,20L0,18ZM2,10L4,10L4,17L2,17L2,10ZM7,10L9,10L9,17L7,17L7,10ZM11,10L13,10L13,17L11,17L11,10ZM16,10L18,10L18,17L16,17L16,10ZM0,5L10,0L20,5L20,9L0,9L0,5ZM10,6C10.5523,6,11,5.55228,11,5C11,4.44772,10.5523,4,10,4C9.44771,4,9,4.44772,9,5C9,5.55228,9.44771,6,10,6Z" fill="#111827" fill-opacity="1" style="mix-blend-mode:passthrough"/></g></svg>