<svg xmlns="http://www.w3.org/2000/svg" xmlns:xlink="http://www.w3.org/1999/xlink" fill="none" version="1.1" width="18" height="18" viewBox="0 0 18 18"><g transform="matrix(1,0,0,-1,0,36)"><path d="M14.625,28.6875Q14.5898,26.22656,13.2188,24.36328L17.6836,19.93359Q18,19.58203,18,19.125Q18,18.667969,17.6836,18.316406Q17.332,18,16.875,18Q16.418,18,16.0664,18.316406L11.6367,22.78125Q9.77344,21.41016,7.3125,21.375Q4.21875,21.44531,2.14453,23.51953Q0.0703125,25.59375,0,28.6875Q0.0703125,31.7812,2.14453,33.8555Q4.21875,35.9297,7.3125,36Q10.4062,35.9297,12.4805,33.8555Q14.5547,31.7812,14.625,28.6875ZM7.3125,23.625Q8.68359,23.625,9.84375,24.29297Q11.0039,24.96094,11.707,26.15625Q12.375,27.35156,12.375,28.6875Q12.375,30.023400000000002,11.707,31.2188Q11.0039,32.4141,9.84375,33.082Q8.68359,33.75,7.3125,33.75Q5.94141,33.75,4.78125,33.082Q3.62109,32.4141,2.91797,31.2188Q2.25,30.023400000000002,2.25,28.6875Q2.25,27.35156,2.91797,26.15625Q3.62109,24.96094,4.78125,24.29297Q5.94141,23.625,7.3125,23.625Z" fill="#9CA3AF" fill-opacity="1" style="mix-blend-mode:passthrough"/></g></svg>