<svg xmlns="http://www.w3.org/2000/svg" xmlns:xlink="http://www.w3.org/1999/xlink" fill="none" version="1.1" width="18" height="15.751673698425293" viewBox="0 0 18 15.751673698425293"><g transform="matrix(1,0,0,-1,0,31.503347396850586)"><path d="M10.793,31.396173698425294Q10.1602,31.079773698425292,10.125,30.376673698425293L10.125,28.126673698425293L6.1875,28.126673698425293Q3.55078,28.056373698425293,1.82812,26.298573698425294Q0.0703125,24.575893698425293,0,21.939173698425293Q0.0351562,19.970423698425293,0.773438,18.669643698425293Q1.47656,17.368863698425294,2.32031,16.665735698425294Q3.16406,15.997767698425292,3.51562,15.821986198425293Q3.65625,15.751673698425293,3.79688,15.751673698425293Q4.42969,15.821986198425293,4.5,16.454798698425293Q4.46484,16.841513698425292,4.14844,17.122763698425292Q3.90234,17.368863698425294,3.65625,17.861053698425295Q3.41016,18.318083698425294,3.375,19.126673698425293Q3.41016,20.568083698425294,4.35938,21.51729369842529Q5.30859,22.466513698425292,6.75,22.501673698425293L10.125,22.501673698425293L10.125,20.251673698425293Q10.1602,19.548553698425295,10.793,19.232143698425293Q11.4609,18.950893698425293,11.9883,19.407923698425293L17.6133,24.470423698425293Q18,24.821983698425292,18,25.314173698425293Q18,25.806373698425293,17.6133,26.15787369842529L11.9883,31.220473698425295Q11.4609,31.677473698425295,10.793,31.396173698425294Z" fill="#FFFFFF" fill-opacity="1" style="mix-blend-mode:passthrough"/></g></svg>