<svg xmlns="http://www.w3.org/2000/svg" xmlns:xlink="http://www.w3.org/1999/xlink" fill="none" version="1.1" width="17.4375" height="17.4375" viewBox="0 0 17.4375 17.4375"><g transform="matrix(1,0,0,-1,0,34.875)"><path d="M8.71875,34.875Q6.29297,34.8398,4.32422,33.6797Q2.35547,32.5195,1.19531,30.550800000000002Q0.0351562,28.582,0,26.15625Q0.0351562,23.73047,1.19531,21.76172Q2.35547,19.79297,4.32422,18.63281Q6.29297,17.4726562,8.71875,17.4375Q11.1445,17.4726562,13.1133,18.63281Q15.082,19.79297,16.2422,21.76172Q17.4023,23.73047,17.4375,26.15625Q17.4023,28.582,16.2422,30.550800000000002Q15.082,32.5195,13.1133,33.6797Q11.1445,34.8398,8.71875,34.875ZM12.7617,28.9336Q12.6914,28.2305,12.5156,27.035159999999998Q12.3398,25.875,12.1289,24.67969Q11.918,23.48438,11.7773,22.67578Q11.5664,21.76172,11.1797,21.79688Q10.6172,21.79688,10.0898,22.21875Q9.94922,22.32422,9.80859,22.42969Q9.21094,22.81641,8.78906,23.13281Q8.36719,23.41406,7.83984,23.73047Q7.3125,24.11719,7.41797,24.36328Q7.48828,24.64453,7.83984,24.92578Q7.94531,25.03125,8.05078,25.13672Q8.08594,25.20703,8.4375,25.48828Q9,26.01562,9.66797,26.683590000000002Q10.3711,27.316409999999998,10.4414,27.4922Q10.4766,27.5273,10.4062,27.6328Q10.3008,27.7031,10.2305,27.668Q10.0898,27.6328,6.53906,25.20703Q6.01172,24.85547,5.58984,24.89062Q5.34375,24.89062,4.95703,24.99609Q4.57031,25.06641,4.25391,25.20703Q4.14844,25.24219,4.04297,25.24219Q3.30469,25.41797,3.30469,25.76953Q3.33984,26.01562,3.9375,26.26172Q7.76953,27.914099999999998,9.03516,28.4414Q10.793,29.1797,11.4258,29.3906Q12.0938,29.636699999999998,12.2695,29.636699999999998Q12.4453,29.636699999999998,12.6211,29.5313Q12.7266,29.425800000000002,12.7617,29.2852Q12.7617,29.1094,12.7617,28.9336Z" fill="#000000" fill-opacity="1" style="mix-blend-mode:passthrough"/></g></svg>