<svg xmlns="http://www.w3.org/2000/svg" xmlns:xlink="http://www.w3.org/1999/xlink" fill="none" version="1.1" width="14" height="12.25" viewBox="0 0 14 12.25"><g transform="matrix(1,0,0,-1,0,24.5)"><path d="M1.75,24.5Q1.01172,24.4727,0.519531,23.9805Q0.0273438,23.488300000000002,0,22.75L0,14Q0.0273438,13.26172,0.519531,12.769531Q1.01172,12.2773438,1.75,12.25L12.25,12.25Q12.9883,12.2773438,13.4805,12.769531Q13.9727,13.26172,14,14L14,20.125Q13.9727,20.86328,13.4805,21.35547Q12.9883,21.847659999999998,12.25,21.875L2.1875,21.875Q1.77734,21.902340000000002,1.75,22.3125Q1.77734,22.7227,2.1875,22.75L12.25,22.75Q12.6328,22.75,12.8789,22.9961Q13.125,23.2422,13.125,23.625Q13.125,24.0078,12.8789,24.2539Q12.6328,24.5,12.25,24.5L1.75,24.5ZM11.375,17.9375Q11.7578,17.9375,12.0039,17.69141Q12.25,17.44531,12.25,17.0625Q12.25,16.67969,12.0039,16.43359Q11.7578,16.1875,11.375,16.1875Q10.9922,16.1875,10.7461,16.43359Q10.5,16.67969,10.5,17.0625Q10.5,17.44531,10.7461,17.69141Q10.9922,17.9375,11.375,17.9375Z" fill="#0172E6" fill-opacity="1" style="mix-blend-mode:passthrough"/></g></svg>