<svg xmlns="http://www.w3.org/2000/svg" xmlns:xlink="http://www.w3.org/1999/xlink" fill="none" version="1.1" width="16" height="14" viewBox="0 0 16 14"><g transform="matrix(1,0,0,-1,0,28)"><path d="M2,28Q1.15625,27.9688,0.59375,27.4062Q0.03125,26.8438,0,26L0,16Q0.03125,15.15625,0.59375,14.59375Q1.15625,14.03125,2,14L14,14Q14.8438,14.03125,15.4062,14.59375Q15.9688,15.15625,16,16L16,23Q15.9688,23.84375,15.4062,24.4062Q14.8438,24.9688,14,25L2.5,25Q2.03125,25.0312,2,25.5Q2.03125,25.9688,2.5,26L14,26Q14.4375,26,14.7188,26.2812Q15,26.5625,15,27Q15,27.4375,14.7188,27.7188Q14.4375,28,14,28L2,28ZM13,20.5Q13.4375,20.5,13.7188,20.21875Q14,19.9375,14,19.5Q14,19.0625,13.7188,18.78125Q13.4375,18.5,13,18.5Q12.5625,18.5,12.2812,18.78125Q12,19.0625,12,19.5Q12,19.9375,12.2812,20.21875Q12.5625,20.5,13,20.5Z" fill="#FFFFFF" fill-opacity="1" style="mix-blend-mode:passthrough"/></g></svg>