<svg xmlns="http://www.w3.org/2000/svg" xmlns:xlink="http://www.w3.org/1999/xlink" fill="none" version="1.1" width="18" height="14.625" viewBox="0 0 18 14.625"><g transform="matrix(1,0,0,-1,0,29.25)"><path d="M16.1367,25.5938Q16.1719,25.3477,16.1719,25.136699999999998Q16.1719,22.64062,14.9414,20.25Q13.7461,17.85938,11.3906,16.27734Q9.07031,14.6953125,5.66016,14.625Q2.49609,14.6601562,0,16.27734Q0.421875,16.24219,0.878906,16.24219Q3.51562,16.27734,5.48438,17.82422Q4.21875,17.85938,3.30469,18.5625Q2.39062,19.26562,2.03906,20.35547Q2.35547,20.32031,2.70703,20.32031Q3.23438,20.32031,3.69141,20.42578Q2.39062,20.70703,1.58203,21.69141Q0.773438,22.67578,0.738281,24.04688L0.738281,24.11719Q1.47656,23.69531,2.39062,23.625Q0.84375,24.7148,0.738281,26.7188Q0.773438,27.738300000000002,1.26562,28.582Q2.63672,26.8945,4.60547,25.875Q6.53906,24.8555,8.85938,24.7148Q8.78906,25.136699999999998,8.78906,25.5586Q8.82422,27.1055,9.84375,28.1602Q10.8984,29.2148,12.4453,29.25Q14.0977,29.2148,15.1523,28.0898Q16.418,28.335900000000002,17.5078,28.9688Q17.0508,27.668,15.8906,26.9297Q16.9805,27.0703,18,27.5273Q17.2266,26.4023,16.1367,25.5938Z" fill="#000000" fill-opacity="1" style="mix-blend-mode:passthrough"/></g></svg>