<svg width="32" height="32" viewBox="0 0 32 32" fill="none" xmlns="http://www.w3.org/2000/svg">
  <circle cx="16" cy="16" r="16" fill="#F3BA2F"/>
  <path d="M11.0714 14.8571L16 9.92853L20.9286 14.8571L23.7143 12.0714L16 4.35712L8.28571 12.0714L11.0714 14.8571Z" fill="white"/>
  <path d="M9.92857 16L7.14285 13.2143L4.35714 16L7.14285 18.7857L9.92857 16Z" fill="white"/>
  <path d="M11.0714 17.1429L16 22.0714L20.9286 17.1429L23.7143 19.9286L16 27.6429L8.28571 19.9286L11.0714 17.1429Z" fill="white"/>
  <path d="M22.0714 16L24.8571 13.2143L27.6429 16L24.8571 18.7857L22.0714 16Z" fill="white"/>
  <path d="M16 13.2143L18.7857 16L16 18.7857L13.2143 16L16 13.2143Z" fill="white"/>
</svg> 