<svg width="32" height="32" viewBox="0 0 32 32" fill="none" xmlns="http://www.w3.org/2000/svg">
  <path d="M16 0C7.164 0 0 7.164 0 16C0 24.836 7.164 32 16 32C24.836 32 32 24.836 32 16C32 7.164 24.836 0 16 0Z" fill="#8247E5"/>
  <path d="M21.092 12.72C20.721 12.509 20.251 12.509 19.849 12.72L16.968 14.412L14.93 15.52L12.081 17.212C11.71 17.423 11.24 17.423 10.838 17.212L8.603 15.943C8.232 15.731 7.974 15.308 7.974 14.855V12.348C7.974 11.895 8.201 11.472 8.603 11.26L10.806 9.991C11.177 9.78 11.647 9.78 12.049 9.991L14.252 11.26C14.623 11.472 14.881 11.895 14.881 12.348V14.04L16.919 12.901V11.209C16.919 10.756 16.692 10.333 16.29 10.121L12.081 7.674C11.71 7.463 11.24 7.463 10.838 7.674L6.565 10.121C6.163 10.333 5.936 10.756 5.936 11.209V16.025C5.936 16.478 6.163 16.901 6.565 17.113L10.806 19.56C11.177 19.771 11.647 19.771 12.049 19.56L14.93 17.899L16.968 16.76L19.849 15.099C20.22 14.888 20.69 14.888 21.092 15.099L23.295 16.368C23.666 16.579 23.924 17.002 23.924 17.455V19.962C23.924 20.415 23.697 20.838 23.295 21.05L21.092 22.35C20.721 22.561 20.251 22.561 19.849 22.35L17.646 21.081C17.275 20.87 17.017 20.447 17.017 19.994V18.302L14.979 19.441V21.133C14.979 21.586 15.206 22.009 15.608 22.221L19.849 24.668C20.22 24.879 20.69 24.879 21.092 24.668L25.333 22.221C25.704 22.009 25.962 21.586 25.962 21.133V16.317C25.962 15.864 25.735 15.441 25.333 15.23L21.092 12.72Z" fill="white"/>
</svg> 